<?xml version="1.0" encoding="UTF-8" standalone="no"?>
<svg
   version="1.1"
   id="Layer_1"
   x="0px"
   y="0px"
   viewBox="0 0 445.5 275.34"
   xml:space="preserve"
   width="445.5"
   height="275.34"
   xmlns:xlink="http://www.w3.org/1999/xlink"
   xmlns="http://www.w3.org/2000/svg">
<defs>
  <!-- Background gradient: deep space -->
  <radialGradient id="bgGlow" cx="70%" cy="30%" r="65%" fx="70%" fy="30%">
    <stop offset="0%" style="stop-color:#0a1628"/>
    <stop offset="100%" style="stop-color:#020408"/>
  </radialGradient>

  <!-- Moon glow: purple ambient light -->
  <radialGradient id="moonGlow" cx="50%" cy="50%" r="50%">
    <stop offset="0%" style="stop-color:#8B5CF6; stop-opacity:0.18"/>
    <stop offset="60%" style="stop-color:#8B5CF6; stop-opacity:0.06"/>
    <stop offset="100%" style="stop-color:#8B5CF6; stop-opacity:0"/>
  </radialGradient>

  <!-- Crescent moon mask -->
  <mask id="crescentMask">
    <rect width="445.5" height="275.34" fill="black"/>
    <circle cx="355" cy="85" r="70" fill="white"/>
    <circle cx="395" cy="55" r="60" fill="black"/>
  </mask>

  <!-- IDE circle gradient: purple to turquoise -->
  <linearGradient id="ideCircleGrad" x1="0" y1="0" x2="1" y2="1">
    <stop offset="0%" style="stop-color:#8B5CF6"/>
    <stop offset="100%" style="stop-color:#06B6D4"/>
  </linearGradient>

  <!-- THEIA bar gradient: dark to purple (replacing blue) -->
  <linearGradient
     id="SVGID_1_"
     gradientUnits="userSpaceOnUse"
     x1="-49.572601"
     y1="42.174"
     x2="391.8576"
     y2="42.174"
     gradientTransform="matrix(1.0221,0,0,1,65.7771,0)">
    <stop offset="0.4731" style="stop-color:#231F20"/>
    <stop offset="0.566" style="stop-color:#2D1B3D;stop-opacity:0.8237"/>
    <stop offset="0.7185" style="stop-color:#4A2D6E;stop-opacity:0.5342"/>
    <stop offset="0.8469" style="stop-color:#6B3FA8;stop-opacity:0.2905"/>
    <stop offset="0.9446" style="stop-color:#7E4FCC;stop-opacity:0.1051"/>
    <stop offset="1" style="stop-color:#8B5CF6;stop-opacity:0"/>
  </linearGradient>
</defs>

<!-- === Background layer === -->
<rect width="445.5" height="275.34" fill="url(#bgGlow)"/>

<!-- Ambient purple glow behind the moon -->
<circle cx="355" cy="85" r="120" fill="url(#moonGlow)"/>

<!-- Crescent moon -->
<rect width="445.5" height="275.34" fill="#c8dce8" opacity="0.9" mask="url(#crescentMask)"/>

<!-- Small accent stars -->
<circle cx="42" cy="38" r="1.2" fill="#ffffff" opacity="0.5"/>
<circle cx="155" cy="22" r="0.8" fill="#ffffff" opacity="0.35"/>
<circle cx="88" cy="68" r="1.0" fill="#ffffff" opacity="0.4"/>
<circle cx="245" cy="15" r="0.7" fill="#ffffff" opacity="0.3"/>
<circle cx="195" cy="55" r="1.1" fill="#ffffff" opacity="0.45"/>
<circle cx="420" cy="200" r="0.9" fill="#ffffff" opacity="0.35"/>
<circle cx="30" cy="230" r="0.8" fill="#ffffff" opacity="0.3"/>
<circle cx="380" cy="245" r="1.0" fill="#ffffff" opacity="0.4"/>
<circle cx="120" cy="250" r="0.7" fill="#ffffff" opacity="0.25"/>

<!-- === THEIA IDE logo with purple/turquoise next colors === -->
<g id="g917" transform="translate(0,95.419998)">
  <path
     d="M 393.8,81.9 H 131.4 c -19.7,0 -35.6,-16 -35.6,-35.6 v -8.1 c 0,-19.7 16,-35.6 35.6,-35.6 h 262.4 c 19.7,0 35.6,16 35.6,35.6 v 8.1 c 0,19.6 -15.9,35.6 -35.6,35.6 z"
     style="fill:url(#SVGID_1_)" />
  <g>
    <g>
      <defs>
        <rect
           id="SVGID_00000103237334383586192740000008903319534172553147_"
           x="5" y="2.3" width="546.20001" height="79.900002" />
      </defs>
      <clipPath id="SVGID_00000144310959564571615110000013590893603388272806_">
        <use xlink:href="#SVGID_00000103237334383586192740000008903319534172553147_" style="overflow:visible" />
      </clipPath>
      <path
         style="fill:#8B5CF6"
         d="m 28.8,71 c 2.7,0 5.1,2.4 5.1,5.3 v 0.6 c 0,2.9 -2.3,5.3 -5.1,5.3 H 10.1 C 7.4,82.2 5,79.8 5,76.9 V 76.3 C 5,73.4 7.3,71 10.1,71 h 18.7"
         clip-path="url(#SVGID_00000144310959564571615110000013590893603388272806_)" />
      <path
         d="m 129.9,113.3 c 2.7,0 5.1,2.4 5.1,5.3 v 0.6 c 0,2.9 -2.3,5.3 -5.1,5.3 h -18.8 c -2.7,0 -5.1,-2.4 -5.1,-5.3 v -0.6 c 0,-2.9 2.3,-5.3 5.1,-5.3 h 18.8"
         clip-path="url(#SVGID_00000144310959564571615110000013590893603388272806_)" />
      <path
         d="m 129.9,113.3 c 2.7,0 5.1,2.4 5.1,5.3 v 0.6 c 0,2.9 -2.3,5.3 -5.1,5.3 h -18.8 c -2.7,0 -5.1,-2.4 -5.1,-5.3 v -0.6 c 0,-2.9 2.3,-5.3 5.1,-5.3 h 18.8"
         clip-path="url(#SVGID_00000144310959564571615110000013590893603388272806_)" />
      <path
         style="fill:#8B5CF6"
         d="m 123.6,16.2 v 0 c -11.7,0 -21.1,9.8 -21.1,22.1 v 8.8 c 0,12.3 9.4,22.1 21.1,22.1 11.7,0 21.1,-9.8 21.1,-22.1 v -8.8 c 0.1,-12 -9.5,-22.1 -21.1,-22.1 z m 7.3,21 c 2.7,0 5.1,2.5 5.1,5.3 v 0.6 c 0,2.9 -2.3,5.3 -5.1,5.3 H 115 c -2.7,0 -5.1,-2.5 -5.1,-5.3 v -0.6 c 0,-2.9 2.3,-5.3 5.1,-5.3 z M 129.5,2.3 c 20.9,0 37.9,17.8 37.9,39.8 0,22 -17,39.8 -37.9,39.8 H 45.7 c -2.9,0 -5.5,-2.5 -5.5,-5.7 0,-3.1 2.3,-5.7 5.5,-5.7 h 19.5 c 2.9,0 5.5,-2.5 5.5,-5.7 0,-3.1 -2.3,-5.7 -5.5,-5.7 h -4.3 c -2.9,0 -5.5,-2.5 -5.5,-5.7 0,-3.1 2.3,-5.7 5.5,-5.7 H 74 c 2.9,0 5.3,-2.7 5.5,-5.7 0,-3.1 -2.3,-5.7 -5.5,-5.7 H 28.5 c -2.9,0 -5.5,-2.5 -5.5,-5.7 0,-3.3 2.3,-5.7 5.5,-5.7 h 33.6 c 2.9,0 5.3,-2.7 5.5,-5.7 0,-3.1 -2.3,-5.7 -5.5,-5.7 H 54.5 C 51.6,13.5 48.9,11 49,7.8 49.2,2.4 53.3,2.9 52.2,2.9 51.1,2.3 129.5,2.3 129.5,2.3"
         clip-path="url(#SVGID_00000144310959564571615110000013590893603388272806_)" />
    </g>
    <path
       fill="#8B5CF6"
       d="m 42.4,47.5 c 2.7,0 5,2.5 5,5.4 v 0.6 c 0,2.9 -2.3,5.4 -5,5.4 H 30.9 c -2.7,0 -5,-2.5 -5,-5.4 v -0.6 c 0,-2.9 2.3,-5.4 5,-5.4 h 11.5" />
  </g>
  <g>
    <g>
      <defs>
        <rect
           id="SVGID_00000011716820131741507370000001687299576994894722_"
           x="34.200001" y="19.6" width="314.20001" height="44.099998" />
      </defs>
      <clipPath id="SVGID_00000157289742235958974410000008890723319589454514_">
        <use xlink:href="#SVGID_00000011716820131741507370000001687299576994894722_" style="overflow:visible" />
      </clipPath>
      <path
         style="fill:#ffffff"
         d="m 330.8,20.2 c 0,0 1.9,0 2.7,0.6 0,0 0.8,0.6 1.5,2.4 l 13.4,39.1 c 0,0 0.2,0.4 0,0.9 0,0 -0.1,0.5 -0.8,0.5 h -5.7 c 0,0 -0.7,0 -1.1,-0.1 0,0 -0.4,-0.1 -0.7,-0.8 l -2.7,-8.4 h -15.7 l -2.6,8.3 c 0,0 -0.2,0.6 -0.6,0.8 0,0 -0.3,0.2 -1.1,0.2 h -5.7 c 0,0 -0.7,0 -0.9,-0.5 0,0 -0.2,-0.4 0,-0.9 L 324,23.1 c 0,0 0.3,-0.9 0.7,-1.5 0,0 0.3,-0.6 0.8,-0.9 0,0 0.4,-0.3 1.1,-0.4 0,0 0.6,-0.1 1.5,-0.1 h 2.7 m -1.2,8.3 h -0.3 l -2.6,8.5 -3.3,10.6 h 11.9 L 332,37.3 Z"
         clip-path="url(#SVGID_00000157289742235958974410000008890723319589454514_)" />
    </g>
    <path
       fill="#FFFFFF"
       d="m 219.3,20 c 0,0 0.9,0 1.1,0.2 0,0 0.3,0.2 0.3,1.1 V 37.4 H 240 V 21.2 c 0,0 0,-0.8 0.3,-1 0,0 0.3,-0.2 1.1,-0.2 h 4.7 c 0,0 0.9,0 1.1,0.2 0,0 0.2,0.2 0.2,1.1 V 62 c 0,0 0,0.9 -0.2,1.1 0,0 -0.2,0.2 -1.1,0.2 h -4.7 c 0,0 -0.8,0 -1.1,-0.2 0,0 -0.3,-0.2 -0.3,-1 V 43.8 H 220.8 V 62 c 0,0 0,0.9 -0.3,1.1 0,0 -0.3,0.2 -1.1,0.2 h -4.7 c 0,0 -0.7,0 -1,-0.2 0,0 -0.3,-0.2 -0.3,-1 V 21.4 c 0,0 0,-0.8 0.3,-1 0,0 0.3,-0.2 1,-0.2 h 4.7 V 20" />
    <path
       fill="#FFFFFF"
       d="m 206.7,20 c 0,0 0.7,0 0.9,0.2 0,0 0.2,0.2 0.2,0.9 v 4.3 c 0,0 0,0.7 -0.2,0.9 0,0 -0.2,0.2 -0.9,0.2 H 195 V 62 c 0,0 0,0.9 -0.2,1.1 0,0 -0.2,0.2 -1.1,0.2 h -4.8 c 0,0 -0.8,0 -1.1,-0.2 0,0 -0.3,-0.2 -0.3,-1 V 26.6 H 176 c 0,0 -0.7,0 -0.9,-0.2 0,0 -0.2,-0.2 -0.2,-0.9 v -4.3 c 0,0 0,-0.7 0.2,-0.9 0,0 0.2,-0.2 0.9,-0.2 h 30.7" />
    <path
       fill="#FFFFFF"
       d="m 284.2,20 c 0,0 0.8,0 1,0.3 0,0 0.2,0.3 0.2,1.1 v 3.9 c 0,0 0,0.8 -0.2,1.1 0,0 -0.2,0.2 -1,0.2 h -16.4 c 0,0 -2.4,0 -3.3,1 0,0 -0.9,1 -0.9,3 v 6.5 h 18.7 c 0,0 0.8,0 1,0.3 0,0 0.2,0.3 0.2,1.1 v 3.4 c 0,0 0,0.8 -0.2,1.1 0,0 -0.2,0.3 -1,0.3 h -18.7 v 9 c 0,0 0,2 1,3 0,0 1,1 3.3,1 h 16.9 c 0,0 0.9,0 1.1,0.3 0,0 0.2,0.3 0.2,1.1 V 62 c 0,0 0,0.7 -0.2,1 0,0 -0.2,0.3 -1,0.3 h -17.7 c 0,0 -3.3,0 -5.4,-0.9 0,0 -2.1,-0.9 -3.4,-2.5 0,0 -1.2,-1.6 -1.8,-3.5 0,0 -0.4,-2 -0.4,-4.2 v -21 c 0,0 0,-2.1 0.6,-4.2 0,0 0.6,-2 1.9,-3.6 0,0 1.3,-1.6 3.5,-2.5 0,0 2.1,-0.9 5.1,-0.9 h 16.9" />
    <path
       fill="#FFFFFF"
       d="m 301.2,20 c 0,0 0.9,0 1.1,0.2 0,0 0.3,0.2 0.3,1.1 V 62 c 0,0 0,0.9 -0.3,1.1 0,0 -0.3,0.2 -1.1,0.2 h -4.7 c 0,0 -0.8,0 -1.1,-0.2 0,0 -0.3,-0.2 -0.3,-1 V 21.2 c 0,0 0,-0.8 0.3,-1 0,0 0.3,-0.2 1.1,-0.2 h 4.7" />
  </g>
  <!-- IDE circle: purple-to-turquoise gradient -->
  <circle fill="url(#ideCircleGrad)" cx="401" cy="42.599998" r="39.5" />
  <g>
    <path fill="#FFFFFF" d="M 377.4,54.8 V 28.2 h 5.3 v 26.6 z" />
    <path fill="#FFFFFF" d="M 387.3,54.8 V 28.2 h 11.3 c 1.8,0 3.3,0.3 4.5,1 1.2,0.6 2.2,1.5 2.9,2.7 0.7,1.2 1.2,2.6 1.5,4.2 0.3,1.6 0.4,3.4 0.4,5.4 0,3 -0.3,5.5 -1,7.5 -0.7,2 -1.7,3.4 -3.1,4.4 -1.4,1 -3.1,1.5 -5.2,1.5 h -11.3 z m 5.3,-4.8 h 5.4 c 1.1,0 2,-0.3 2.6,-1 0.6,-0.6 1.1,-1.6 1.4,-2.9 0.3,-1.3 0.5,-2.8 0.5,-4.7 0,-1.7 -0.1,-3.1 -0.3,-4.3 -0.2,-1.1 -0.5,-2 -0.8,-2.6 -0.4,-0.6 -0.8,-1.1 -1.4,-1.3 -0.6,-0.2 -1.2,-0.4 -2,-0.4 h -5.4 z" />
    <path fill="#FFFFFF" d="m 418.3,55 c -0.6,0 -1.2,-0.1 -2,-0.2 -0.7,-0.1 -1.5,-0.4 -2.1,-0.7 -0.7,-0.4 -1.2,-1 -1.7,-1.7 -0.5,-0.7 -0.7,-1.9 -0.7,-3.2 v -15 c 0,-1.2 0.2,-2.2 0.5,-3 0.4,-0.8 0.8,-1.4 1.4,-1.9 0.6,-0.5 1.3,-0.8 2,-1 0.7,-0.2 1.4,-0.3 2.1,-0.3 1.8,0 3.4,0 4.8,0.1 1.4,0 2.6,0.1 3.7,0.2 1.1,0.1 2.1,0.1 3,0.2 V 33 h -9.9 c -0.7,0 -1.3,0.2 -1.7,0.5 -0.4,0.4 -0.6,0.9 -0.6,1.7 v 3.9 l 10.5,0.3 v 4.2 l -10.5,0.3 v 3.7 c 0,0.6 0.1,1.1 0.3,1.5 0.2,0.3 0.5,0.6 0.8,0.7 0.3,0.1 0.7,0.2 1.1,0.2 h 10 v 4.5 c -1.1,0.1 -2.2,0.2 -3.5,0.3 -1.3,0.1 -2.6,0.1 -3.9,0.2 -1.2,0 -2.5,0 -3.6,0 z" />
  </g>
  <!-- "NEXT" label below the IDE circle -->
  <text x="401" y="94" text-anchor="middle"
        font-family="'Segoe UI', 'Helvetica Neue', Arial, sans-serif"
        font-size="11" font-weight="600" letter-spacing="3"
        fill="#06B6D4" opacity="0.75">NEXT</text>
</g>
</svg>
