<svg width="640" height="240" viewBox="0 0 640 240" fill="none" xmlns="http://www.w3.org/2000/svg">
  <defs>
    <linearGradient id="bg" x1="24" y1="22" x2="220" y2="214" gradientUnits="userSpaceOnUse">
      <stop stop-color="#110D1D"/>
      <stop offset="1" stop-color="#050810"/>
    </linearGradient>
    <linearGradient id="accent" x1="40" y1="120" x2="220" y2="120" gradientUnits="userSpaceOnUse">
      <stop stop-color="#A243FF"/>
      <stop offset="0.45" stop-color="#27F2FF"/>
      <stop offset="1" stop-color="#FFD660"/>
    </linearGradient>
    <radialGradient id="glow" cx="0" cy="0" r="1" gradientUnits="userSpaceOnUse" gradientTransform="translate(182 54) rotate(128.291) scale(90.5539 82.9257)">
      <stop stop-color="#27F2FF" stop-opacity="0.86"/>
      <stop offset="1" stop-color="#27F2FF" stop-opacity="0"/>
    </radialGradient>
  </defs>
  <rect x="16" y="20" width="208" height="200" rx="42" fill="url(#bg)"/>
  <circle cx="182" cy="58" r="54" fill="url(#glow)"/>
  <rect x="36" y="42" width="168" height="156" rx="32" fill="rgba(255,255,255,0.03)" stroke="rgba(39,242,255,0.35)"/>
  <path d="M70 78H172C180.837 78 188 85.1634 188 94V96C188 104.837 180.837 112 172 112H70C61.1634 112 54 104.837 54 96V94C54 85.1634 61.1634 78 70 78Z" fill="url(#accent)" fill-opacity="0.16" stroke="rgba(39,242,255,0.25)"/>
  <path d="M74 85H166C170.971 85 175 89.0294 175 94C175 98.9706 170.971 103 166 103H74C69.0294 103 65 98.9706 65 94C65 89.0294 69.0294 85 74 85Z" fill="url(#accent)"/>
  <path d="M90 129H150C158.837 129 166 136.163 166 145C166 153.837 158.837 161 150 161H90C81.1634 161 74 153.837 74 145C74 136.163 81.1634 129 90 129Z" fill="rgba(255,255,255,0.07)" stroke="rgba(255,214,96,0.25)"/>
  <path d="M115 52L131 60L115 68V52Z" fill="#27F2FF"/>
  <path d="M388.855 79.888C388.855 67.359 379.619 59.24 363.981 59.24C348.54 59.24 336.875 67.26 336.875 78.727C336.875 102.684 376.438 93.844 376.438 107.419C376.438 112.434 371.719 115.58 364.669 115.58C355.335 115.58 347.106 111.45 341.108 104.217L332.75 115.089C340.29 123.994 351.985 129.172 364.376 129.172C381.327 129.172 393.392 120.859 393.392 107.221C393.392 82.576 353.83 92.301 353.83 78.171C353.83 73.997 358.029 71.247 364.174 71.247C371.656 71.247 379.425 74.133 385.539 79.476L388.855 79.888Z" fill="#F7F2FF"/>
  <path d="M422.515 127.862V100.851H452.794V88.875H422.515V72.023H456.754V59.992H408.567V127.862H422.515Z" fill="#F7F2FF"/>
  <path d="M493.526 128.971C512.583 128.971 524.35 118.498 530.906 102.188L518.632 97.441C514.255 108.443 506.848 115.58 493.526 115.58C478.675 115.58 468.689 104.284 468.689 93.958C468.689 83.687 478.675 72.394 493.526 72.394C506.848 72.394 514.255 79.525 518.632 90.525L530.906 85.778C524.35 69.471 512.583 59.001 493.526 59.001C470.163 59.001 454.446 74.231 454.446 93.958C454.446 113.739 470.163 128.971 493.526 128.971Z" fill="#F7F2FF"/>
  <path d="M567.192 128.971C588.758 128.971 600.232 116.412 600.232 95.87V59.992H586.282V95.87C586.282 108.345 579.682 115.58 567.192 115.58C554.755 115.58 548.155 108.345 548.155 95.87V59.992H534.208V95.87C534.208 116.412 545.684 128.971 567.192 128.971Z" fill="#F7F2FF"/>
  <path d="M351.715 177V151.636H363.582C369.267 151.636 372.897 154.695 372.897 159.43C372.897 164.165 369.267 167.189 363.582 167.189H357.278V177H351.715ZM357.278 162.485H362.804C365.747 162.485 367.173 161.147 367.173 159.43C367.173 157.68 365.747 156.342 362.804 156.342H357.278V162.485Z" fill="#C9BEDF"/>
  <path d="M385.681 177.351C379.73 177.351 375.303 173.314 375.303 166.701C375.303 160.09 379.73 156.023 385.681 156.023C391.63 156.023 396.058 160.09 396.058 166.701C396.058 173.314 391.63 177.351 385.681 177.351ZM385.681 172.971C388.655 172.971 390.643 170.585 390.643 166.701C390.643 162.817 388.655 160.403 385.681 160.403C382.704 160.403 380.715 162.817 380.715 166.701C380.715 170.585 382.704 172.971 385.681 172.971Z" fill="#C9BEDF"/>
  <path d="M404.657 177L397.407 156.373H402.911L407.531 170.982L412.181 156.373H416.651L421.334 170.982L425.923 156.373H431.456L424.174 177H418.463L413.993 163.315L409.495 177H404.657Z" fill="#C9BEDF"/>
  <path d="M443.486 177.351C437.236 177.351 432.988 173.187 432.988 166.669C432.988 160.281 437.148 156.023 442.912 156.023C448.972 156.023 452.87 160.472 452.87 167.571V168.685H438.282C438.641 171.818 440.78 173.792 443.965 173.792C446.434 173.792 448.01 172.839 449.108 171.247L452.482 174.476C450.523 176.585 447.847 177.351 443.486 177.351ZM438.373 164.961H447.818C447.549 161.987 445.68 159.719 442.912 159.719C440.206 159.719 438.521 161.638 438.373 164.961Z" fill="#C9BEDF"/>
  <path d="M456.693 177V156.373H462.048V159.814C463.175 157.495 464.869 156.168 467.635 156.168H468.134V161.268H467.365C463.504 161.268 462.048 163.186 462.048 167.127V177H456.693Z" fill="#C9BEDF"/>
  <path d="M480.235 177.351C473.984 177.351 469.737 173.187 469.737 166.669C469.737 160.281 473.896 156.023 479.663 156.023C485.72 156.023 489.619 160.472 489.619 167.571V168.685H475.031C475.39 171.818 477.529 173.792 480.714 173.792C483.183 173.792 484.759 172.839 485.856 171.247L489.231 174.476C487.272 176.585 484.595 177.351 480.235 177.351Z" fill="#C9BEDF"/>
  <path d="M501.928 177.351C496.34 177.351 492.022 172.999 492.022 166.701C492.022 160.403 496.34 156.023 501.928 156.023C504.878 156.023 507.226 157.188 508.56 159.108V148.271H513.91V177H508.56V173.913C507.226 176.093 504.908 177.351 501.928 177.351ZM503.055 172.971C506.151 172.971 508.771 170.46 508.771 166.701C508.771 162.94 506.151 160.403 503.055 160.403C499.992 160.403 497.466 162.94 497.466 166.701C497.466 170.46 499.992 172.971 503.055 172.971Z" fill="#C9BEDF"/>
  <path d="M534.382 177V148.271H539.734V159.108C541.069 157.188 543.387 156.023 546.338 156.023C551.926 156.023 556.241 160.403 556.241 166.701C556.241 172.999 551.926 177.351 546.338 177.351C543.357 177.351 541.039 176.093 539.734 173.913V177H534.382ZM545.18 172.971C548.245 172.971 550.797 170.46 550.797 166.701C550.797 162.94 548.245 160.403 545.18 160.403C542.116 160.403 539.497 162.94 539.497 166.701C539.497 170.46 542.116 172.971 545.18 172.971Z" fill="#C9BEDF"/>
  <path d="M561.022 184.968L564.484 176.88L556.639 156.373H562.35L567.311 170.87L572.236 156.373H577.796L566.29 184.968H561.022Z" fill="#C9BEDF"/>
  <text x="607" y="172" fill="#27F2FF" font-family="Segoe UI, Arial, sans-serif" font-size="14" font-weight="700" letter-spacing="3">NEXT</text>
</svg>
